<svg xmlns="http://www.w3.org/2000/svg" xmlns:xlink="http://www.w3.org/1999/xlink" width="500" zoomAndPan="magnify" viewBox="0 0 375 374.999991" height="500" preserveAspectRatio="xMidYMid meet" version="1.2"><defs/><g id="ddee1fcb05"><g style="fill:#ffffff;fill-opacity:1;"><g transform="translate(3.032231, 181.499988)"><path style="stroke:none" d="M 51.359375 -58.59375 C 51.359375 -61.96875 50.050781 -64.898438 47.4375 -67.390625 C 44.820312 -69.878906 41.144531 -71.125 36.40625 -71.125 C 32.382812 -71.125 29.207031 -70.300781 26.875 -68.65625 C 24.550781 -67.007812 23.390625 -64.78125 23.390625 -61.96875 C 23.390625 -60.519531 23.671875 -59.210938 24.234375 -58.046875 C 24.796875 -56.878906 25.78125 -55.832031 27.1875 -54.90625 C 28.59375 -53.988281 30.441406 -53.164062 32.734375 -52.4375 C 35.023438 -51.71875 37.9375 -51.035156 41.46875 -50.390625 C 50.3125 -48.785156 57.0625 -46.09375 61.71875 -42.3125 C 66.382812 -38.539062 68.71875 -32.957031 68.71875 -25.5625 L 68.71875 -24.109375 C 68.71875 -20.171875 68.015625 -16.613281 66.609375 -13.4375 C 65.203125 -10.269531 63.171875 -7.554688 60.515625 -5.296875 C 57.867188 -3.046875 54.65625 -1.316406 50.875 -0.109375 C 47.101562 1.085938 42.84375 1.6875 38.09375 1.6875 C 32.550781 1.6875 27.671875 0.90625 23.453125 -0.65625 C 19.234375 -2.226562 15.71875 -4.398438 12.90625 -7.171875 C 10.09375 -9.941406 7.960938 -13.195312 6.515625 -16.9375 C 5.066406 -20.675781 4.34375 -24.753906 4.34375 -29.171875 L 4.34375 -32.796875 L 20.25 -32.796875 L 20.25 -29.90625 C 20.25 -24.832031 21.71875 -20.789062 24.65625 -17.78125 C 27.59375 -14.769531 32.15625 -13.265625 38.34375 -13.265625 C 43.164062 -13.265625 46.738281 -14.304688 49.0625 -16.390625 C 51.394531 -18.484375 52.5625 -20.976562 52.5625 -23.875 C 52.5625 -25.238281 52.320312 -26.539062 51.84375 -27.78125 C 51.363281 -29.03125 50.519531 -30.15625 49.3125 -31.15625 C 48.101562 -32.164062 46.453125 -33.070312 44.359375 -33.875 C 42.273438 -34.675781 39.625 -35.359375 36.40625 -35.921875 C 32.144531 -36.648438 28.242188 -37.597656 24.703125 -38.765625 C 21.171875 -39.929688 18.097656 -41.476562 15.484375 -43.40625 C 12.878906 -45.332031 10.851562 -47.738281 9.40625 -50.625 C 7.957031 -53.519531 7.234375 -57.0625 7.234375 -61.25 L 7.234375 -61.96875 C 7.234375 -65.425781 7.9375 -68.617188 9.34375 -71.546875 C 10.75 -74.484375 12.71875 -77.035156 15.25 -79.203125 C 17.78125 -81.378906 20.832031 -83.066406 24.40625 -84.265625 C 27.988281 -85.472656 31.988281 -86.078125 36.40625 -86.078125 C 41.394531 -86.078125 45.816406 -85.375 49.671875 -83.96875 C 53.523438 -82.5625 56.757812 -80.648438 59.375 -78.234375 C 61.988281 -75.828125 63.957031 -73.054688 65.28125 -69.921875 C 66.613281 -66.785156 67.28125 -63.492188 67.28125 -60.046875 L 67.28125 -55.703125 L 51.359375 -55.703125 Z M 51.359375 -58.59375 "/></g></g><g style="fill:#ffffff;fill-opacity:1;"><g transform="translate(76.81644, 181.499988)"><path style="stroke:none" d="M 69.921875 0 L 42.203125 0 L 38.34375 -64.140625 L 38.34375 -75.71875 L 35.453125 -75.71875 L 35.453125 -64.140625 L 31.59375 0 L 3.859375 0 L 0.96875 -84.390625 L 15.4375 -84.390625 L 17.359375 -20.25 L 17.359375 -9.40625 L 20.25 -9.40625 L 20.25 -20.25 L 24.109375 -84.390625 L 49.671875 -84.390625 L 53.53125 -20.25 L 53.53125 -9.40625 L 56.421875 -9.40625 L 56.421875 -20.25 L 58.359375 -84.390625 L 72.8125 -84.390625 Z M 69.921875 0 "/></g></g><g style="fill:#ffffff;fill-opacity:1;"><g transform="translate(150.600649, 181.499988)"><path style="stroke:none" d="M 8.6875 -84.390625 L 65.109375 -84.390625 L 65.109375 -69.203125 L 44.84375 -69.203125 L 44.84375 -15.1875 L 65.109375 -15.1875 L 65.109375 0 L 8.6875 0 L 8.6875 -15.1875 L 28.9375 -15.1875 L 28.9375 -69.203125 L 8.6875 -69.203125 Z M 8.6875 -84.390625 "/></g></g><g style="fill:#ffffff;fill-opacity:1;"><g transform="translate(224.384847, 181.499988)"><path style="stroke:none" d="M 10.609375 -84.390625 L 64.625 -84.390625 L 64.625 -69.203125 L 26.53125 -69.203125 L 26.53125 -49.90625 L 63.890625 -49.90625 L 63.890625 -34.71875 L 26.53125 -34.71875 L 26.53125 0 L 10.609375 0 Z M 10.609375 -84.390625 "/></g></g><g style="fill:#ffffff;fill-opacity:1;"><g transform="translate(298.169067, 181.499988)"><path style="stroke:none" d="M 6.515625 -84.390625 L 67.28125 -84.390625 L 67.28125 -69.203125 L 44.84375 -69.203125 L 44.84375 0 L 28.9375 0 L 28.9375 -69.203125 L 6.515625 -69.203125 Z M 6.515625 -84.390625 "/></g></g><g style="fill:#ffffff;fill-opacity:1;"><g transform="translate(3.032231, 283.499981)"><path style="stroke:none" d="M 9.890625 -84.390625 L 25.796875 -84.390625 L 25.796875 -15.1875 L 64.140625 -15.1875 L 64.140625 0 L 9.890625 0 Z M 9.890625 -84.390625 "/></g></g><g style="fill:#ffffff;fill-opacity:1;"><g transform="translate(76.81644, 283.499981)"><path style="stroke:none" d=""/></g></g><g style="fill:#ffffff;fill-opacity:1;"><g transform="translate(150.600649, 283.499981)"><path style="stroke:none" d="M 5.78125 -51.59375 C 5.78125 -62.53125 8.53125 -71.007812 14.03125 -77.03125 C 19.539062 -83.0625 27.160156 -86.078125 36.890625 -86.078125 C 46.617188 -86.078125 54.234375 -83.0625 59.734375 -77.03125 C 65.242188 -71.007812 68 -62.53125 68 -51.59375 L 68 -32.796875 C 68 -21.546875 65.242188 -12.984375 59.734375 -7.109375 C 54.234375 -1.242188 46.617188 1.6875 36.890625 1.6875 C 27.160156 1.6875 19.539062 -1.242188 14.03125 -7.109375 C 8.53125 -12.984375 5.78125 -21.546875 5.78125 -32.796875 Z M 36.890625 -12.78125 C 39.785156 -12.78125 42.195312 -13.238281 44.125 -14.15625 C 46.050781 -15.082031 47.617188 -16.390625 48.828125 -18.078125 C 50.035156 -19.765625 50.878906 -21.773438 51.359375 -24.109375 C 51.835938 -26.441406 52.078125 -29.015625 52.078125 -31.828125 L 52.078125 -52.5625 C 52.078125 -55.21875 51.796875 -57.707031 51.234375 -60.03125 C 50.671875 -62.363281 49.785156 -64.375 48.578125 -66.0625 C 47.378906 -67.75 45.8125 -69.09375 43.875 -70.09375 C 41.945312 -71.101562 39.617188 -71.609375 36.890625 -71.609375 C 34.160156 -71.609375 31.828125 -71.101562 29.890625 -70.09375 C 27.960938 -69.09375 26.394531 -67.75 25.1875 -66.0625 C 23.988281 -64.375 23.109375 -62.363281 22.546875 -60.03125 C 21.984375 -57.707031 21.703125 -55.21875 21.703125 -52.5625 L 21.703125 -31.828125 C 21.703125 -29.015625 21.941406 -26.441406 22.421875 -24.109375 C 22.898438 -21.773438 23.742188 -19.765625 24.953125 -18.078125 C 26.160156 -16.390625 27.726562 -15.082031 29.65625 -14.15625 C 31.582031 -13.238281 33.992188 -12.78125 36.890625 -12.78125 Z M 36.890625 -12.78125 "/></g></g><g style="fill:#ffffff;fill-opacity:1;"><g transform="translate(224.384847, 283.499981)"><path style="stroke:none" d=""/></g></g><g style="fill:#ffffff;fill-opacity:1;"><g transform="translate(298.169067, 283.499981)"><path style="stroke:none" d="M 31.34375 -42.671875 L 67.515625 -42.671875 L 67.515625 0 L 53.046875 0 L 53.046875 -9.40625 L 50.875 -9.40625 C 49.914062 -6.269531 48.066406 -3.632812 45.328125 -1.5 C 42.597656 0.625 38.5 1.6875 33.03125 1.6875 C 29.175781 1.6875 25.5625 0.960938 22.1875 -0.484375 C 18.8125 -1.929688 15.875 -4.082031 13.375 -6.9375 C 10.882812 -9.789062 8.914062 -13.328125 7.46875 -17.546875 C 6.03125 -21.765625 5.3125 -26.6875 5.3125 -32.3125 L 5.3125 -52.078125 C 5.3125 -57.546875 6.09375 -62.390625 7.65625 -66.609375 C 9.21875 -70.828125 11.382812 -74.382812 14.15625 -77.28125 C 16.9375 -80.175781 20.253906 -82.363281 24.109375 -83.84375 C 27.972656 -85.332031 32.234375 -86.078125 36.890625 -86.078125 C 41.710938 -86.078125 46.007812 -85.289062 49.78125 -83.71875 C 53.5625 -82.15625 56.78125 -79.988281 59.4375 -77.21875 C 62.09375 -74.445312 64.101562 -71.191406 65.46875 -67.453125 C 66.832031 -63.710938 67.515625 -59.710938 67.515625 -55.453125 L 67.515625 -54.015625 L 51.59375 -54.015625 L 51.59375 -55.453125 C 51.59375 -60.515625 50.285156 -64.351562 47.671875 -66.96875 C 45.066406 -69.582031 41.394531 -70.890625 36.65625 -70.890625 C 32.15625 -70.890625 28.457031 -69.378906 25.5625 -66.359375 C 22.664062 -63.347656 21.21875 -58.1875 21.21875 -50.875 L 21.21875 -33.03125 C 21.21875 -20.007812 26.523438 -13.5 37.140625 -13.5 C 41.878906 -13.5 45.472656 -14.765625 47.921875 -17.296875 C 50.367188 -19.828125 51.59375 -23.222656 51.59375 -27.484375 L 31.34375 -27.484375 Z M 31.34375 -42.671875 "/></g></g></g></svg>